<svg viewBox="-1 12 80 22" width="55" height="22" fill="none" xmlns="http://www.w3.org/2000/svg" focusable="false">
	<path d="M67.598 23.02a6.465 6.465 0 0 0-3.125-.987 6.539 6.539 0 0 0-3.224.657 6.003 6.003 0 0 0-2.398 2.113 5.45 5.45 0 0 0-.884 2.963 5.45 5.45 0 0 0 .884 2.963 6.003 6.003 0 0 0 2.398 2.113c.99.488 2.105.715 3.224.657 1.119-.058 2.2-.4 3.125-.988v.695h3.496V22.325h-3.496v.696Zm-3.18 7.546a3.148 3.148 0 0 1-1.625-.544 2.832 2.832 0 0 1-1.038-1.287 2.624 2.624 0 0 1-.106-1.607c.134-.534.433-1.02.86-1.396.426-.377.962-.63 1.541-.726a3.211 3.211 0 0 1 1.716.184c.54.217 1.001.576 1.325 1.034.323.458.496.994.496 1.542a2.795 2.795 0 0 1-.963 2.01 3.219 3.219 0 0 1-2.205.79ZM19.657 17.476h-3.66v15.73h3.66v-15.73ZM51.76 22.034a4.519 4.519 0 0 0-2.001.345 4.214 4.214 0 0 0-1.6 1.173v-1.225h-3.481v10.881h3.524V27.49a2.15 2.15 0 0 1 .144-.968c.122-.31.314-.59.563-.824a2.49 2.49 0 0 1 .88-.532c.33-.116.684-.164 1.037-.141 1.536 0 2.42.855 2.42 2.442v5.741h3.492v-6.92c0-2.532-2.16-4.254-4.977-4.254ZM30.717 23.02a6.465 6.465 0 0 0-3.125-.987 6.539 6.539 0 0 0-3.224.657 6.004 6.004 0 0 0-2.398 2.113 5.451 5.451 0 0 0-.884 2.963c0 1.044.306 2.069.884 2.963a6.004 6.004 0 0 0 2.398 2.113c.99.488 2.105.715 3.224.657 1.118-.058 2.199-.4 3.125-.988v.695h3.496V22.325h-3.496v.696Zm-3.18 7.546a3.149 3.149 0 0 1-1.626-.543 2.832 2.832 0 0 1-1.037-1.288 2.624 2.624 0 0 1-.107-1.607c.134-.533.433-1.019.86-1.396.426-.377.962-.63 1.541-.726a3.21 3.21 0 0 1 1.717.184c.54.217 1 .576 1.324 1.034.324.458.496.994.496 1.542a2.795 2.795 0 0 1-.962 2.01 3.218 3.218 0 0 1-2.206.79ZM39.622 23.744v-1.418h-3.58v10.882h3.587v-5.08c0-1.714 1.994-2.636 3.377-2.636l.042.002v-3.167a4.635 4.635 0 0 0-1.885.348 4.35 4.35 0 0 0-1.541 1.069ZM74.806 29.348c-.434 0-.858.12-1.22.345-.36.224-.641.544-.807.917-.166.374-.21.785-.125 1.182.084.397.293.76.6 1.047.307.286.698.48 1.124.56.425.078.867.038 1.268-.117.4-.155.743-.417.984-.753a1.924 1.924 0 0 0 .203-1.919 2.042 2.042 0 0 0-.475-.663 2.213 2.213 0 0 0-.712-.444 2.334 2.334 0 0 0-.84-.155ZM13.475 17.474H9.683a8.538 8.538 0 0 1-1.027 4.082 9.228 9.228 0 0 1-2.894 3.211L4.26 25.816l5.82 7.397h4.786l-5.355-6.806a12.503 12.503 0 0 0 2.944-4.096 11.782 11.782 0 0 0 1.02-4.837ZM3.798 17.474H0v15.738h3.798V17.474Z" fill="#FFF" />
</svg>
